<?xml version="1.0" encoding="windows-1252"?>
<!-- Uploaded to: SVG Repo, www.svgrepo.com, Generator: SVG Repo Mixer Tools -->
<svg height="800px" width="800px" version="1.1" id="Layer_1" xmlns="http://www.w3.org/2000/svg" xmlns:xlink="http://www.w3.org/1999/xlink" viewBox="0 0 512.001 512.001" xml:space="preserve">
<g>
	<path style="fill:#B27214;" d="M470.005,377.72c37.673-3.784,57.204,43.484,27.666,67.154c-6.662,5.343-13.55,10.403-20.651,15.18   l-48.105-29.811L470.005,377.72z"/>
	<path style="fill:#B27214;" d="M67.126,14.329c23.67-29.537,70.938-10.006,67.154,27.652c-1.035,10.191-1.559,20.523-1.559,30.983   l-49.635,3.888l-37.12-32.603C52.428,33.845,59.501,23.853,67.126,14.329z"/>
</g>
<path style="fill:#F7B239;" d="M470.005,377.72l7.016,82.333c-48.785,32.811-107.519,51.945-170.719,51.945  c-169.641,0-306.301-136.66-306.301-306.301c0-59.259,16.824-114.578,45.964-161.449l86.755,28.715  c0,169.046,137.255,306.316,306.316,306.301C449.496,379.265,459.829,378.741,470.005,377.72z"/>
<path style="fill:#E09B2D;" d="M65.904,205.699c0-51.706,12.811-100.41,35.434-143.122L45.965,44.25  C16.825,91.12,0.001,146.44,0.001,205.699c0,169.641,136.66,306.301,306.301,306.301c11.116,0,22.091-0.604,32.902-1.759  C185.188,493.87,65.904,364.186,65.904,205.699z"/>
<path style="fill:#B27214;" d="M367.206,458.183c-83.933,0-162.694-32.538-221.773-91.618  c-59.079-59.08-91.615-137.845-91.615-221.784c0-12.39,0.731-24.886,2.174-37.14c0.458-3.888,3.987-6.666,7.866-6.209  c3.888,0.458,6.667,3.98,6.209,7.866c-1.379,11.707-2.078,23.645-2.078,35.483c0,80.153,31.062,155.359,87.464,211.763  c56.402,56.403,131.603,87.465,211.749,87.465c8.153,0,16.447-0.34,24.652-1.011c3.899-0.315,7.322,2.585,7.641,6.486  c0.319,3.901-2.584,7.322-6.486,7.641C384.425,457.827,375.742,458.183,367.206,458.183z"/>
</svg>