<?xml version="1.0" encoding="UTF-8" standalone="no"?>
<!-- Generator: Adobe Illustrator 14.0.0, SVG Export Plug-In . SVG Version: 6.00 Build 43363)  -->

<svg
   xmlns:dc="http://purl.org/dc/elements/1.1/"
   xmlns:cc="http://creativecommons.org/ns#"
   xmlns:rdf="http://www.w3.org/1999/02/22-rdf-syntax-ns#"
   xmlns:svg="http://www.w3.org/2000/svg"
   xmlns="http://www.w3.org/2000/svg"
   xmlns:sodipodi="http://sodipodi.sourceforge.net/DTD/sodipodi-0.dtd"
   xmlns:inkscape="http://www.inkscape.org/namespaces/inkscape"
   version="1.0"
   id="svg3194"
   inkscape:version="0.92.2 (5c3e80d, 2017-08-06)"
   sodipodi:version="0.32"
   sodipodi:docname="Bandera_de_Xàtiva.svg"
   inkscape:output_extension="org.inkscape.output.svg.inkscape"
   x="0px"
   y="0px"
   width="750px"
   height="499.999px"
   viewBox="-59.069 308.626 750 499.999"
   enable-background="new -59.069 308.626 750 499.999"
   xml:space="preserve"><metadata
     id="metadata211"><rdf:RDF><cc:Work
         rdf:about=""><dc:format>image/svg+xml</dc:format><dc:type
           rdf:resource="http://purl.org/dc/dcmitype/StillImage" /></cc:Work></rdf:RDF></metadata><defs
     id="defs209" /><sodipodi:namedview
     id="base"
     pagecolor="#ffffff"
     inkscape:zoom="0.95399088"
     inkscape:window-y="0"
     borderopacity="1.0"
     inkscape:window-width="1188"
     inkscape:cy="262.1786"
     bordercolor="#666666"
     inkscape:document-units="px"
     inkscape:window-x="110"
     guidetolerance="10"
     inkscape:current-layer="layer5"
     inkscape:window-height="884"
     inkscape:pageshadow="2"
     inkscape:cx="572.12408"
     gridtolerance="10000"
     objecttolerance="10"
     inkscape:pageopacity="0.0"
     showgrid="false"
     inkscape:window-maximized="0"
     showguides="true"
     inkscape:guide-bbox="true"
     inkscape:snap-smooth-nodes="true"
     inkscape:object-paths="false"
     inkscape:object-nodes="true"
     inkscape:snap-nodes="true"
     inkscape:snap-global="true"
     inkscape:snap-intersection-paths="false"
     inkscape:snap-bbox="true"
     inkscape:snap-bbox-midpoints="true"
     inkscape:snap-center="false"
     inkscape:snap-others="false" /><g
     id="layer5"
     inkscape:label="Bandera"
     inkscape:groupmode="layer"><rect
       x="-59.069"
       y="308.625"
       width="750"
       height="500"
       id="rect10"
       style="fill:#da121a;stroke:#000000;stroke-width:0;stroke-miterlimit:4;stroke-dasharray:none" /><path
       style="opacity:1;vector-effect:none;fill:#fcdd09;fill-opacity:1;stroke:#000000;stroke-width:0;stroke-linecap:butt;stroke-linejoin:miter;stroke-miterlimit:4;stroke-dasharray:none;stroke-dashoffset:0;stroke-opacity:1"
       d="m 315.92025,362.20655 a 11.115795,33.347385 0 0 0 -11.11524,33.3457 18.159641,18.159641 0 0 0 -18.14062,18.16016 18.159641,18.159641 0 0 0 18.16015,18.16015 18.159641,18.159641 0 0 0 7.95703,-1.875 c -1.19079,16.40932 -9.10213,27.08008 -22.35937,27.08008 -16.75605,0 -21.89562,-6.23353 -22.95898,-11.70508 a 6.530336,6.5615584 0 0 0 1.67578,0.23047 6.530336,6.5615584 0 0 0 6.52929,-6.5625 6.530336,6.5615584 0 0 0 -6.52343,-6.56055 3.9973188,12.049292 0 0 0 -3.9961,-12.04882 3.9973188,12.049292 0 0 0 -3.99804,12.04882 6.530336,6.5615584 0 0 0 -6.5293,6.56055 6.530336,6.5615584 0 0 0 6.5293,6.5625 6.530336,6.5615584 0 0 0 1.15039,-0.10937 c -0.4265,6.52651 -2.83113,11.58398 -11.84375,11.58398 -7.42286,0 -15.99956,-8.65548 -22.11329,-15.28125 0.66287,-0.46639 1.28924,-0.98786 1.85938,-1.57422 5.04085,-5.1899 4.91116,-13.47497 -0.29102,-18.5039 -5.20189,-5.02923 -13.50631,-4.89917 -18.54687,0.29101 -7.75581,-7.49746 -15.96796,-12.1446 -20.4336,-11.92578 -1.03052,0.0505 -1.86165,0.35953 -2.4414,0.95312 l 34.58984,33.43946 28.17578,37.43164 h 0.11328 c -3.31584,0.18145 -3.06831,6.70489 0,6.52344 h 64.61719 64.61719 c 3.0683,0.18146 3.3159,-6.34199 0,-6.52344 l 28.1797,-37.43164 34.5879,-33.43946 c -0.5798,-0.59359 -1.4109,-0.90262 -2.4414,-0.95312 -4.4657,-0.21882 -12.6778,4.42832 -20.4336,11.92578 -5.0406,-5.19018 -13.345,-5.32024 -18.5469,-0.29101 -5.2021,5.02893 -5.3319,13.314 -0.291,18.5039 0.5704,0.58663 1.1942,1.10963 1.8574,1.57617 -6.1141,6.62555 -14.6891,15.2793 -22.11132,15.2793 -9.0127,0 -11.41921,-5.05747 -11.8457,-11.58398 a 6.530336,6.5615584 0 0 0 1.15039,0.10937 6.530336,6.5615584 0 0 0 6.5293,-6.5625 6.530336,6.5615584 0 0 0 -6.5293,-6.56055 3.9973188,12.049292 0 0 0 -3.99805,-12.04882 3.9973188,12.049292 0 0 0 -3.99609,12.04882 6.530336,6.5615584 0 0 0 -6.52344,6.56055 6.530336,6.5615584 0 0 0 6.5293,6.5625 6.530336,6.5615584 0 0 0 1.67578,-0.23047 c -1.06297,5.47155 -6.20101,11.70508 -22.95703,11.70508 -13.25461,0 -21.16783,-10.66655 -22.36133,-27.07031 a 18.159641,18.159641 0 0 0 7.95703,1.86523 18.159641,18.159641 0 0 0 18.16016,-18.16015 18.159641,18.159641 0 0 0 -18.16016,-18.16016 11.115795,33.347385 0 0 0 -11.11523,-33.3457 z m 0,39.27539 a 10.376929,10.376929 0 0 1 10.37695,10.37695 10.376929,10.376929 0 0 1 -10.37695,10.37695 10.376929,10.376929 0 0 1 -10.37696,-10.37695 10.376929,10.376929 0 0 1 10.37696,-10.37695 z m 0.0117,101.55078 L 189.9261,629.03858 315.93195,755.04444 441.93783,629.03858 Z m 0,14.45312 L 427.48474,629.03858 315.93196,740.58936 204.38118,629.03858 Z m -0.002,14.45313 -10.78906,10.78906 v 172.61914 l 10.78906,10.78906 10.78906,-10.78906 V 542.72803 Z m -32.36523,32.36523 -21.57813,21.58008 v 86.30859 l 21.57813,21.57813 z m 64.73242,0.002 v 129.46289 l 21.57617,-21.57422 v -86.3125 z m 43.15434,43.15429 v 43.15625 l 21.5781,-21.57812 z m -151.04301,0.002 -21.57617,21.57617 21.57617,21.57617 z"
       id="path915"
       inkscape:connector-curvature="0" /></g><g
     id="layer6"
     inkscape:label="Escut"
     inkscape:groupmode="layer"
     style="display:inline" /></svg>